# xmcd CD database file
#
# Track frame offsets:
#	150
#	14308
#	35689
#	52111
#	69544
#	88280
#	116440
#	132124
#	142884
#	160897
#	184100
#	197010
#	219006
#
# Disc length: 3194 seconds
#
# Revision: 1
# Processed by: cddbd v1.5.2PL0 Copyright (c) Steve Scherf et al.
# Submitted via: CDex 1.79
#
DISCID=b40c780d
DTITLE=Halie Loren - They Oughta Write a Song...
DYEAR=1900
DGENRE=Jazz
TTITLE0=Thet oughta write as song
TTITLE1=A whiter shade of pale
TTITLE2=Blue skies
TTITLE3=Autumn leaves
TTITLE4=Fever
TTITLE5=God bless the child
TTITLE6=My rainbow race
TTITLE7=Perhaps, perhaps, perhaps
TTITLE8=How should I know
TTITLE9=Summertime
TTITLE10=I don;t miss it that much
TTITLE11=The dock of the bay
TTITLE12=As time goes by
EXTD=
EXTT0=
EXTT1=
EXTT2=
EXTT3=
EXTT4=
EXTT5=
EXTT6=
EXTT7=
EXTT8=
EXTT9=
EXTT10=
EXTT11=
EXTT12=
PLAYORDER=
